<?xml version="1.0" encoding="UTF-8"?>
<svg version="1.1" xmlns="http://www.w3.org/2000/svg" width="243" height="73">
<path d="M0 0 C0 24.09 0 48.18 0 73 C-80.19 73 -160.38 73 -243 73 C-242.67 49.24 -242.34 25.48 -242 1 C-211.31504615 0.87258514 -180.63009224 0.74518504 -149.94513819 0.61781773 C-146.32629981 0.60279661 -142.70746143 0.58777532 -139.08862305 0.57275391 C-138.3681472 0.56976329 -137.64767135 0.56677268 -136.9053629 0.56369144 C-125.22425837 0.51520405 -113.54315391 0.466702 -101.86204947 0.41819459 C-89.88504327 0.36845873 -77.90803701 0.31873851 -65.93103069 0.26903296 C-59.2000029 0.24109819 -52.46897515 0.21315607 -45.73794746 0.18519592 C-39.41058357 0.15891327 -33.0832196 0.1326498 -26.75585556 0.10640144 C-24.42613026 0.09673339 -22.096405 0.08705815 -19.76667976 0.07737541 C-16.60096876 0.06421922 -13.43525765 0.0510882 -10.26954651 0.03796387 C-9.33474081 0.03407292 -8.39993511 0.03018197 -7.43680197 0.02617311 C-1.11412121 0 -1.11412121 0 0 0 Z " fill="#FCFCFC" transform="translate(243,0)"/>
<path d="M0 0 C3.0625 2.125 3.0625 2.125 5 5 C5.3125 8.3125 5.3125 8.3125 5 11 C6.918125 10.938125 6.918125 10.938125 8.875 10.875 C11.0546875 10.8046875 11.0546875 10.8046875 13 11 C18.0623819 16.0623819 16.09733651 29.22749876 16.125 36.1875 C16.12967285 37.02531006 16.1343457 37.86312012 16.13916016 38.72631836 C16.12307851 44.75384298 16.12307851 44.75384298 15 47 C9.62485095 47.04935509 4.24983315 47.08569802 -1.12548828 47.10986328 C-2.95493873 47.11993484 -4.78437303 47.13359276 -6.61376953 47.15087891 C-9.23994934 47.17507677 -11.86591675 47.18647132 -14.4921875 47.1953125 C-15.72350906 47.21079636 -15.72350906 47.21079636 -16.97970581 47.22659302 C-18.98789142 47.22699184 -20.99555382 47.1224954 -23 47 C-25 45 -25 45 -25.23046875 42.55859375 C-25.18198873 39.0371811 -25.11174868 35.52008327 -25 32 C-24.98066406 31.27039063 -24.96132813 30.54078125 -24.94140625 29.7890625 C-24.87511957 27.50412162 -24.78510677 25.22130184 -24.6875 22.9375 C-24.66518311 22.21167725 -24.64286621 21.48585449 -24.61987305 20.73803711 C-24.45879657 17.63177003 -24.15137485 15.28608045 -22.6875 12.51953125 C-21 11 -21 11 -17.3125 10.75 C-16.219375 10.8325 -15.12625 10.915 -14 11 C-13.9175 9.9275 -13.835 8.855 -13.75 7.75 C-13 4 -13 4 -11.5 1.5625 C-7.7329874 -0.79188287 -4.31602034 -0.88317142 0 0 Z " fill="#05B290" transform="translate(35,12)"/>
<path d="M0 0 C12.46752444 -0.37032251 12.46752444 -0.37032251 14.8984375 1.3203125 C16.59173815 3.90229576 16.31931621 5.99842759 16 9 C15.34 9.66 14.68 10.32 14 11 C14.495 11.37125 14.99 11.7425 15.5 12.125 C17 14 17 14 17.375 17 C17 20 17 20 15.625 21.8125 C10.23340133 25.75251441 9.12645633 24 0 24 C0 16.08 0 8.16 0 0 Z " fill="#0D0D0D" transform="translate(144,27)"/>
<path d="M0 0 C3.96 0 7.92 0 12 0 C13.32 1.32 14.64 2.64 16 4 C15.75 7.25 15.75 7.25 15 10 C14.34 10 13.68 10 13 10 C13.495 10.515625 13.99 11.03125 14.5 11.5625 C16.56021138 14.91034349 16.49125459 17.14014247 16 21 C12 24 12 24 0 24 C0 16.08 0 8.16 0 0 Z " fill="#080808" transform="translate(70,27)"/>
<path d="M0 0 C3.34238038 2.14255152 3.89167954 3.60282498 4.9375 7.4375 C5.00698608 11.39820668 4.43366566 12.93538398 2 16 C-1.19233485 17.59616743 -4.53461497 17.51466114 -8 17 C-11.34425629 14.42749516 -12.81699852 12.37251107 -13.375 8.1875 C-13 5 -13 5 -11 2.125 C-6.85436985 -0.81148802 -5.00671711 -0.7152453 0 0 Z " fill="#0F0F0F" transform="translate(102,34)"/>
<path d="M0 0 C3.31578076 2.66879915 3.89008359 4.31607564 4.5625 8.5 C4 12 4 12 2 14.9375 C-2.15080314 17.79117716 -4.0301078 17.7099846 -9 17 C-11.5 15.5625 -11.5 15.5625 -13 13 C-13.75551032 8.71090495 -13.71240656 5.26994213 -11.5625 1.4375 C-7.73599249 -0.70907738 -4.27813857 -0.89487669 0 0 Z " fill="#080808" transform="translate(136,34)"/>
<path d="M0 0 C5.93437868 -0.15439034 5.93437868 -0.15439034 8.671875 1.51953125 C10.58153809 4.4961807 10.1856982 7.14228818 10.08984375 10.625 C10.06277344 11.89730469 10.03570312 13.16960938 10.0078125 14.48046875 C9.97300781 15.45628906 9.93820313 16.43210937 9.90234375 17.4375 C9.09796875 17.251875 8.29359375 17.06625 7.46484375 16.875 C6.61921875 16.730625 5.77359375 16.58625 4.90234375 16.4375 C4.57234375 16.7675 4.24234375 17.0975 3.90234375 17.4375 C-1.35216527 17.89441383 -1.35216527 17.89441383 -4.03515625 16.25 C-5.09765625 14.4375 -5.09765625 14.4375 -4.91015625 11.875 C-4.09765625 9.4375 -4.09765625 9.4375 -2.09765625 7.4375 C0.22509552 7.03702556 2.55973732 6.6977896 4.90234375 6.4375 C4.57234375 5.7775 4.24234375 5.1175 3.90234375 4.4375 C2.91234375 4.4375 1.92234375 4.4375 0.90234375 4.4375 C0.57234375 5.0975 0.24234375 5.7575 -0.09765625 6.4375 C-1.74765625 6.1075 -3.39765625 5.7775 -5.09765625 5.4375 C-3.98635534 2.4740309 -3.24134956 0.67603566 0 0 Z " fill="#101010" transform="translate(204.09765625,33.5625)"/>
<path d="M0 0 C1.18722656 -0.05607422 1.18722656 -0.05607422 2.3984375 -0.11328125 C4.625 0.3125 4.625 0.3125 6.40234375 1.91015625 C8.02598738 5.10038256 7.91931582 7.50197282 7.8125 11.0625 C7.78542969 12.23296875 7.75835937 13.4034375 7.73046875 14.609375 C7.69566406 15.50140625 7.66085938 16.3934375 7.625 17.3125 C6.820625 17.126875 6.01625 16.94125 5.1875 16.75 C4.341875 16.605625 3.49625 16.46125 2.625 16.3125 C2.295 16.6425 1.965 16.9725 1.625 17.3125 C-1.8125 17.5 -1.8125 17.5 -5.375 17.3125 C-7.375 15.3125 -7.375 15.3125 -7.6875 12.875 C-7.375 10.3125 -7.375 10.3125 -6.25 8.5625 C-3.71522139 6.87264759 -1.36924517 6.64519391 1.625 6.3125 C1.625 5.6525 1.625 4.9925 1.625 4.3125 C-0.54374252 4.81853992 -2.37467627 5.31233813 -4.375 6.3125 C-5.365 5.9825 -6.355 5.6525 -7.375 5.3125 C-5.29502249 1.01387981 -4.85109314 0.14914364 0 0 Z " fill="#121212" transform="translate(171.375,33.6875)"/>
<path d="M0 0 C4.62 0 9.24 0 14 0 C12.875 5.625 12.875 5.625 9.9375 8.8125 C9.38964844 9.41707031 8.84179688 10.02164063 8.27734375 10.64453125 C7.85582031 11.09183594 7.43429688 11.53914063 7 12 C9.31 12.33 11.62 12.66 14 13 C14 14.32 14 15.64 14 17 C9.38 17 4.76 17 0 17 C0 12 0 12 1.53125 9.98046875 C2.1809375 9.38878906 2.830625 8.79710937 3.5 8.1875 C4.1496875 7.58292969 4.799375 6.97835937 5.46875 6.35546875 C6.22671875 5.68451172 6.22671875 5.68451172 7 5 C4.69 4.67 2.38 4.34 0 4 C0 2.68 0 1.36 0 0 Z " fill="#0B0B0B" transform="translate(182,34)"/>
<path d="M0 0 C3.66666667 0 7.33333333 0 11 0 C11 1.65 11 3.3 11 5 C9.35 5.33 7.7 5.66 6 6 C5.67 9.63 5.34 13.26 5 17 C3.35 17 1.7 17 0 17 C0 11.39 0 5.78 0 0 Z " fill="#1A1A1A" transform="translate(110,34)"/>
<path d="M0 0 C2.475 0.495 2.475 0.495 5 1 C7.72502965 0.62277985 7.72502965 0.62277985 10 0 C10 1.65 10 3.3 10 5 C8.35 5 6.7 5 5 5 C4.67 8.96 4.34 12.92 4 17 C2.68 17 1.36 17 0 17 C0 11.39 0 5.78 0 0 Z " fill="#090909" transform="translate(219,34)"/>
<path d="M0 0 C1.9375 1.1875 1.9375 1.1875 3 3 C3 4.65 3 6.3 3 8 C-1.29 8 -5.58 8 -10 8 C-10 3 -10 3 -8.9375 1.1875 C-5.90624457 -0.67036623 -3.46577141 -0.37133265 0 0 Z " fill="#EDF9F7" transform="translate(34,15)"/>
<path d="M0 0 C1.2375 0.1546875 1.2375 0.1546875 2.5 0.3125 C4.5 3.3125 4.5 3.3125 4.1875 5.9375 C3.5 8.3125 3.5 8.3125 2.5 9.3125 C0.0625 9.5 0.0625 9.5 -2.5 9.3125 C-4.5 7.3125 -4.5 7.3125 -4.75 4.8125 C-4.40047575 1.3172575 -3.47557682 0.4344471 0 0 Z " fill="#EEEEEE" transform="translate(131.5,37.6875)"/>
<path d="M0 0 C0.99 0.33 1.98 0.66 3 1 C3 1.66 3 2.32 3 3 C6.98653225 3.80933447 6.98653225 3.80933447 11 4 C13.33454661 2.16641665 13.33454661 2.16641665 15 0 C15.99 0 16.98 0 18 0 C17.65557106 2.49710982 17.15296001 3.82154665 15.5 5.75 C11.70884595 7.64557702 8.14776938 7.82660173 4 7 C0.9375 4.5 0.9375 4.5 -1 2 C-0.67 1.34 -0.34 0.68 0 0 Z " fill="#E8F8F5" transform="translate(22,44)"/>
<path d="M0 0 C2.5625 0.1875 2.5625 0.1875 4.5625 2.1875 C4.8125 4.6875 4.8125 4.6875 4.5625 7.1875 C3.9025 7.8475 3.2425 8.5075 2.5625 9.1875 C-1.99305556 8.63194444 -1.99305556 8.63194444 -3.4375 7.1875 C-3.5625 4.1875 -3.5625 4.1875 -3.4375 1.1875 C-2.4375 0.1875 -2.4375 0.1875 0 0 Z " fill="#F8F8F8" transform="translate(97.4375,37.8125)"/>
<path d="M0 0 C0.598125 0.226875 1.19625 0.45375 1.8125 0.6875 C1.1525 2.3375 0.4925 3.9875 -0.1875 5.6875 C0.8025 6.3475 1.7925 7.0075 2.8125 7.6875 C3.1425 8.3475 3.4725 9.0075 3.8125 9.6875 C0.4375 9.8125 0.4375 9.8125 -3.1875 9.6875 C-5.1875 7.6875 -5.1875 7.6875 -5.5 5.25 C-5.1875 2.6875 -5.1875 2.6875 -3.9375 0.8125 C-2.1875 -0.3125 -2.1875 -0.3125 0 0 Z " fill="#0C0C0C" transform="translate(169.1875,41.3125)"/>
<path d="M0 0 C2.31 0.33 4.62 0.66 7 1 C7.625 2.875 7.625 2.875 8 5 C6 7 6 7 2.875 7.125 C1.451875 7.063125 1.451875 7.063125 0 7 C0 4.69 0 2.38 0 0 Z " fill="#E0E0E0" transform="translate(74,40)"/>
<path d="M0 0 C1.98 0 3.96 0 6 0 C6.38218767 1.65614657 6.71395102 3.32457024 7 5 C6 6 6 6 2.9375 6.0625 C1.4834375 6.0315625 1.4834375 6.0315625 0 6 C0 4.02 0 2.04 0 0 Z " fill="#F9F9F9" transform="translate(149,41)"/>
<path d="M0 0 C1.98 0 3.96 0 6 0 C6.625 1.875 6.625 1.875 7 4 C5 6 5 6 2.375 6.125 C1.59125 6.08375 0.8075 6.0425 0 6 C0 4.02 0 2.04 0 0 Z " fill="#E5E5E5" transform="translate(149,31)"/>
<path d="M0 0 C1.98 0 3.96 0 6 0 C6.625 1.875 6.625 1.875 7 4 C5 6 5 6 2.375 6.125 C1.59125 6.08375 0.8075 6.0425 0 6 C0 4.02 0 2.04 0 0 Z " fill="#E9E9E9" transform="translate(74,31)"/>
<path d="M0 0 C8.19256018 -0.63019694 8.19256018 -0.63019694 11.5625 2 C12.036875 2.66 12.51125 3.32 13 4 C12.01 4.66 11.02 5.32 10 6 C9.34 5.34 8.68 4.68 8 4 C6.824375 3.67 5.64875 3.34 4.4375 3 C3.303125 2.67 2.16875 2.34 1 2 C0.67 1.34 0.34 0.68 0 0 Z " fill="#21B798" transform="translate(26,12)"/>
<path d="M0 0 C1.65 0 3.3 0 5 0 C5 0.99 5 1.98 5 3 C3.35 3.33 1.7 3.66 0 4 C0 2.68 0 1.36 0 0 Z " fill="#E9E9E9" transform="translate(169,44)"/>
<path d="M0 0 C1.65 0 3.3 0 5 0 C4.67 1.32 4.34 2.64 4 4 C2.68 4 1.36 4 0 4 C0 2.68 0 1.36 0 0 Z " fill="#E9E9E9" transform="translate(204,44)"/>
<path d="M0 0 C1.32 0.33 2.64 0.66 4 1 C3.67 1.99 3.34 2.98 3 4 C1.35 3.67 -0.3 3.34 -2 3 C-1.34 2.01 -0.68 1.02 0 0 Z " fill="#E8E8E8" transform="translate(170,37)"/>
<path d="M0 0 C1.32 0.33 2.64 0.66 4 1 C4 1.66 4 2.32 4 3 C2.02 3.33 0.04 3.66 -2 4 C-1.34 2.68 -0.68 1.36 0 0 Z " fill="#EFEFEF" transform="translate(205,37)"/>
</svg>
