<?xml version="1.0" encoding="UTF-8"?>
<svg version="1.1" xmlns="http://www.w3.org/2000/svg" width="243" height="73">
<path d="M0 0 C3.85186407 2.47100714 5.69244542 3.83568624 6.875 8.3125 C6.91625 9.199375 6.9575 10.08625 7 11 C7.928125 10.938125 8.85625 10.87625 9.8125 10.8125 C13 11 13 11 14.8125 12.125 C18.39465377 17.78103227 17.45842151 26.69810069 17.75 33.1875 C17.85248047 34.96930664 17.85248047 34.96930664 17.95703125 36.78710938 C18.00730469 37.92341797 18.05757812 39.05972656 18.109375 40.23046875 C18.16061523 41.26582764 18.21185547 42.30118652 18.26464844 43.36791992 C18 46 18 46 17.01074219 47.83349609 C13.77139682 49.71275692 10.36311172 49.44723227 6.71875 49.43359375 C5.9088562 49.4388356 5.0989624 49.44407745 4.26452637 49.44947815 C2.55315294 49.45589817 0.84173538 49.45456157 -0.86962891 49.44604492 C-3.49070589 49.43753019 -6.10960692 49.46630122 -8.73046875 49.49804688 C-10.39322851 49.49965885 -12.05599214 49.49908142 -13.71875 49.49609375 C-14.50318481 49.50732773 -15.28761963 49.51856171 -16.0958252 49.53013611 C-19.32003479 49.48875167 -21.44580853 49.44087222 -24.01782227 47.39477539 C-25.34903314 44.14897686 -25.21014496 41.68685295 -24.99609375 38.1875 C-24.95694351 37.53676514 -24.91779327 36.88603027 -24.87745667 36.21557617 C-24.79023371 34.84337538 -24.69475491 33.47167753 -24.59155273 32.10058594 C-24.43808278 30.00794649 -24.32191114 27.9154853 -24.20898438 25.8203125 C-24.11943039 24.48422277 -24.02770546 23.14827642 -23.93359375 21.8125 C-23.85165771 20.60207031 -23.76972168 19.39164063 -23.68530273 18.14453125 C-22.89267037 14.50751492 -21.96650779 13.198964 -19 11 C-15.75 10.75 -15.75 10.75 -13 11 C-12.95875 9.9275 -12.9175 8.855 -12.875 7.75 C-12 4 -12 4 -9.3125 1.5625 C-5.67962041 -0.15112245 -3.94098732 -0.73893512 0 0 Z M-7.8125 5.25 C-9.37433428 7.19917293 -9.37433428 7.19917293 -9 11 C-5.04 11 -1.08 11 3 11 C2.67 9.35 2.34 7.7 2 6 C-1.52037005 3.65308663 -4.13480629 2.71365951 -7.8125 5.25 Z M4 33 C3.46375 33.66 2.9275 34.32 2.375 35 C0 37 0 37 -3 37.4375 C-6.26980997 36.96065271 -7.537189 36.11098086 -10 34 C-10.66 34 -11.32 34 -12 34 C-10.63016497 37.16115776 -10.0109362 37.9927092 -7 40 C-2.6867465 40.47925039 -0.69413218 40.47260063 2.9375 38 C3.618125 37.34 4.29875 36.68 5 36 C4.67 35.01 4.34 34.02 4 33 Z " fill="#08AE8F" transform="translate(34,11)"/>
<path d="M0 0 C12 0 12 0 15.25 1.625 C17 4 17 4 17.4375 7.125 C17 10 17 10 15 12 C15.515625 12.53625 16.03125 13.0725 16.5625 13.625 C18 16 18 16 17.875 19.0625 C16.94483229 22.18520588 16.62044891 23.16298427 14 25 C9.30736629 25.40971773 4.71873609 25.12987347 0 25 C0 16.75 0 8.5 0 0 Z M6 5 C6 6.65 6 8.3 6 10 C7.65 10 9.3 10 11 10 C11.33 9.01 11.66 8.02 12 7 C11.67 6.34 11.34 5.68 11 5 C9.35 5 7.7 5 6 5 Z M6 15 C6 16.98 6 18.96 6 21 C7.98 20.67 9.96 20.34 12 20 C11.67 18.35 11.34 16.7 11 15 C9.35 15 7.7 15 6 15 Z " fill="#020202" transform="translate(69,26)"/>
<path d="M0 0 C12 0 12 0 15.3125 2.125 C17 5 17 5 16.8125 8.1875 C16.544375 9.115625 16.27625 10.04375 16 11 C15.87034265 13.20173659 15.87034265 13.20173659 17.1875 15.8125 C18 19 18 19 16.75 21.8125 C15 24 15 24 13 25 C8.66396021 25.1393329 4.33919329 25.04254111 0 25 C0 16.75 0 8.5 0 0 Z M5 5 C5 6.65 5 8.3 5 10 C6.65 10 8.3 10 10 10 C10.59070014 8.05396726 10.59070014 8.05396726 11 6 C9.93354885 4.70366379 9.93354885 4.70366379 7.4375 4.9375 C6.633125 4.958125 5.82875 4.97875 5 5 Z M5 15 C5 16.98 5 18.96 5 21 C6.98 20.67 8.96 20.34 11 20 C11.59070014 18.05396726 11.59070014 18.05396726 12 16 C10.87465895 14.64381501 10.87465895 14.64381501 7.9375 14.9375 C6.968125 14.958125 5.99875 14.97875 5 15 Z " fill="#030303" transform="translate(144,26)"/>
<path d="M0 0 C2.47887524 2.15902037 2.9381573 3.79238523 3.875 6.9375 C4.02799927 10.6859822 3.29375466 12.07348544 1 15 C-0.75 16.875 -0.75 16.875 -3 18 C-6.84043397 17.93142082 -9.18962822 17.5544649 -12.375 15.375 C-14.56576361 12.17311472 -14.93220153 9.8645127 -15 6 C-13.79752004 3.15202115 -12.69646878 1.56749308 -10.3125 -0.375 C-6.74627085 -1.33884572 -3.53480493 -1.03035803 0 0 Z M-9 5 C-10.09036928 7.9737344 -10.03864166 8.88407501 -9 12 C-6.60280568 12.67958603 -6.60280568 12.67958603 -4 13 C-1.7508092 11.17296773 -1.7508092 11.17296773 -1.75 8.5 C-1.7508092 5.82703227 -1.7508092 5.82703227 -4 4 C-6.9254644 3.7763932 -6.9254644 3.7763932 -9 5 Z " fill="#030303" transform="translate(137,34)"/>
<path d="M0 0 C2.20703125 1.5703125 2.20703125 1.5703125 4 4 C4.390625 7.453125 4.390625 7.453125 4.25 11.25 C4.21390625 12.51328125 4.1778125 13.7765625 4.140625 15.078125 C4.07101563 16.52445313 4.07101563 16.52445313 4 18 C3.07960937 17.9896875 2.15921875 17.979375 1.2109375 17.96875 C-1.96949615 17.99970313 -4.8808646 18.40587897 -8 19 C-9.32 17.35 -10.64 15.7 -12 14 C-11.5625 11.625 -11.5625 11.625 -10 9 C-7.05880129 7.92998438 -4.09415757 7.42656082 -1 7 C-1 6.34 -1 5.68 -1 5 C-2.65 5 -4.3 5 -6 5 C-6 5.66 -6 6.32 -6 7 C-7.65 7 -9.3 7 -11 7 C-10.6875 4.625 -10.6875 4.625 -10 2 C-6.2794164 -0.48038907 -4.40203429 -0.46337203 0 0 Z M-5 11 C-5 12.32 -5 13.64 -5 15 C-3.68 14.34 -2.36 13.68 -1 13 C-1 12.34 -1 11.68 -1 11 C-2.32 11 -3.64 11 -5 11 Z " fill="#030303" transform="translate(175,33)"/>
<path d="M0 0 C2.140625 1.04296875 2.140625 1.04296875 4 3 C4.45781902 5.68528464 4.69472304 7.99651714 4.75 10.6875 C4.77964844 11.38939453 4.80929688 12.09128906 4.83984375 12.81445312 C4.91037033 14.54235424 4.95747068 16.2711832 5 18 C4.07445312 17.98582031 3.14890625 17.97164062 2.1953125 17.95703125 C-1.01307929 17.89273528 -1.01307929 17.89273528 -4.125 18.6875 C-7 19 -7 19 -9.375 17.5625 C-9.91125 17.046875 -10.4475 16.53125 -11 16 C-10.67 13.69 -10.34 11.38 -10 9 C-7.03 8.34 -4.06 7.68 -1 7 C-1 6.34 -1 5.68 -1 5 C-2.0828125 5.495 -2.0828125 5.495 -3.1875 6 C-6.01697427 7.00603529 -8.02895466 7.16977402 -11 7 C-10.63802104 4.37565253 -10.17343943 3.17986311 -8.3125 1.25 C-5.2912009 -0.38313465 -3.39266095 -0.42408262 0 0 Z M-5 11 C-5 12.32 -5 13.64 -5 15 C-3.68 14.34 -2.36 13.68 -1 13 C-1 12.34 -1 11.68 -1 11 C-2.32 11 -3.64 11 -5 11 Z " fill="#040404" transform="translate(210,33)"/>
<path d="M0 0 C2.69990662 1.79993774 4.5418865 3.083773 6 6 C6.39447548 10.18144011 6.45035186 12.30946048 4.125 15.875 C1.61333682 18.38666318 0.70615837 18.92153796 -2.8125 19.3125 C-6.7307645 18.92835642 -8.21293267 17.70743683 -11 15 C-12.62220646 11.75558709 -12.70159132 8.49459297 -12 5 C-8.36438899 0.84501599 -5.54577572 -1.06195705 0 0 Z M-5 5 C-7.2491908 6.82703227 -7.2491908 6.82703227 -7.25 9.5 C-7.2491908 12.17296773 -7.2491908 12.17296773 -5 14 C-2.39719432 13.67958603 -2.39719432 13.67958603 0 13 C0.6878236 10.64632287 0.6878236 10.64632287 1 8 C0.34 7.01 -0.32 6.02 -1 5 C-2.32 5 -3.64 5 -5 5 Z " fill="#030303" transform="translate(101,33)"/>
<path d="M0 0 C4.29 0.33 8.58 0.66 13 1 C13 6.34203818 12.89703018 6.73348606 9.5 10.3125 C8.8503125 11.00988281 8.200625 11.70726562 7.53125 12.42578125 C7.0259375 12.94527344 6.520625 13.46476562 6 14 C9.465 13.505 9.465 13.505 13 13 C13.33 14.65 13.66 16.3 14 18 C9.05 18 4.1 18 -1 18 C-1 11.80480491 0.01457844 11.28432818 4 7 C1.525 6.01 1.525 6.01 -1 5 C-0.67 3.35 -0.34 1.7 0 0 Z " fill="#040404" transform="translate(183,33)"/>
<path d="M0 0 C1.11375 0.2475 1.11375 0.2475 2.25 0.5 C5.18606431 1.03382988 7.13588733 0.73648612 10 0 C10 1.98 10 3.96 10 6 C8.68 6.33 7.36 6.66 6 7 C5.67 10.63 5.34 14.26 5 18 C3.02 18 1.04 18 -1 18 C-1.02684312 15.18743719 -1.04676188 12.37512759 -1.0625 9.5625 C-1.07087891 8.76005859 -1.07925781 7.95761719 -1.08789062 7.13085938 C-1.0965143 5.08704779 -1.0522815 3.04316098 -1 1 C-0.67 0.67 -0.34 0.34 0 0 Z " fill="#040404" transform="translate(219,33)"/>
<path d="M0 0 C3.85186407 2.47100714 5.69244542 3.83568624 6.875 8.3125 C6.91625 9.199375 6.9575 10.08625 7 11 C6.01 11 5.02 11 4 11 C3.67 11.66 3.34 12.32 3 13 C-4.26 12.67 -11.52 12.34 -19 12 C-19 11.67 -19 11.34 -19 11 C-17.02 11 -15.04 11 -13 11 C-12.95875 9.9275 -12.9175 8.855 -12.875 7.75 C-12 4 -12 4 -9.3125 1.5625 C-5.67962041 -0.15112245 -3.94098732 -0.73893512 0 0 Z M-7.8125 5.25 C-9.37433428 7.19917293 -9.37433428 7.19917293 -9 11 C-5.04 11 -1.08 11 3 11 C2.67 9.35 2.34 7.7 2 6 C-1.52037005 3.65308663 -4.13480629 2.71365951 -7.8125 5.25 Z " fill="#1DA086" transform="translate(34,11)"/>
<path d="M0 0 C2.63804589 -0.39397335 2.63804589 -0.39397335 5 -1 C5 0.98 5 2.96 5 5 C4.360625 5.12375 3.72125 5.2475 3.0625 5.375 C2.381875 5.58125 1.70125 5.7875 1 6 C-0.14814997 8.29629994 -0.30769809 10.07698086 -0.5625 12.625 C-0.64628906 13.44226562 -0.73007813 14.25953125 -0.81640625 15.1015625 C-0.87699219 15.72804688 -0.93757813 16.35453125 -1 17 C-2.65 17 -4.3 17 -6 17 C-6 11.39 -6 5.78 -6 0 C-3 -1 -3 -1 0 0 Z " fill="#050505" transform="translate(116,34)"/>
<path d="M0 0 C2.31 0.66 4.62 1.32 7 2 C7 2.99 7 3.98 7 5 C3.71303767 5.79953138 2.28976808 6.09658936 -1 5 C-0.67 3.35 -0.34 1.7 0 0 Z " fill="#1A1A1A" transform="translate(183,33)"/>
<path d="M0 0 C1.32 0.33 2.64 0.66 4 1 C4 1.99 4 2.98 4 4 C6.64 4 9.28 4 12 4 C11.67 4.66 11.34 5.32 11 6 C8.3125 6.3125 8.3125 6.3125 5 6 C2.125 3.5625 2.125 3.5625 0 1 C0 0.67 0 0.34 0 0 Z " fill="#22A18A" transform="translate(23,43)"/>
<path d="M0 0 C1.32 0.33 2.64 0.66 4 1 C4 1.99 4 2.98 4 4 C0.52674819 5.1577506 -2.36067448 5.06866652 -6 5 C-6 4.67 -6 4.34 -6 4 C-4.02 4 -2.04 4 0 4 C0 2.68 0 1.36 0 0 Z " fill="#28A78E" transform="translate(21,18)"/>
<path d="" fill="#FFFFFF" transform="translate(0,0)"/>
<path d="" fill="#FFFFFF" transform="translate(0,0)"/>
<path d="" fill="#FFFFFF" transform="translate(0,0)"/>
</svg>
